<?xml version="1.0" encoding="UTF-8" standalone="no"?>
<!-- Created with Inkscape (http://www.inkscape.org/) -->

<svg
   version="1.1"
   id="svg870"
   width="373.28918"
   height="253.46991"
   viewBox="0 0 373.28918 253.46991"
   xmlns="http://www.w3.org/2000/svg"
   xmlns:svg="http://www.w3.org/2000/svg">
  <defs
     id="defs874" />
  <g
     id="g876"
     transform="translate(154.94043,76.886637)">
    <g
       id="g1716"
       transform="translate(-25.479557,66.358625)">
      <path
         style="fill:#f4a323"
         d="m -44.53438,109.33505 c -2.36909,-1.57137 -13.892863,-4.91816 -23.604946,-6.85546 -6.438536,-1.28431 -8.866563,-2.17697 -8.791889,-3.23231 0.112221,-1.58598 73.710225,-102.3443 75.617465,-103.52304 1.47452,-0.9113 86.66483,-1.29916 104.98797,-0.478 13.7086,0.61436 13.7086,0.61436 51.75,52.43363 20.92277,28.5006 38.0414,52.1919 38.0414,52.64735 0,0.45544 -3.03136,1.35596 -6.73635,2.00115 -3.70499,0.6452 -11.6034,2.7465 -17.55203,4.66957 -10.81569,3.49648 -10.81569,3.49648 -19.51366,0.50401 -25.57717,-8.79962 -52.95372,-9.36254 -78.20649,-1.6081 -12.71867,3.90556 -12.8963,3.91059 -23.099,0.65341 -26.14029,-8.3452 -53.98883,-8.08074 -79.72878,0.75714 -9.69867,3.33006 -10.92047,3.51854 -13.16369,2.03065 z m -84.85086,-4.31843 c 0.32982,-1.53226 182.3246,-243.98691 185.61431,-247.27661 1.3736,-1.3736 1.70944,-1.34339 3.28162,0.29519 5.5959,5.83225 185.02579,245.65189 184.31553,246.34962 -0.47333,0.46499 -3.5606,0.21209 -6.8606,-0.562 -3.3,-0.77408 -11.61579,-1.9171 -18.47954,-2.54003 -9.4915,-0.86141 -12.76814,-1.52642 -13.6849,-2.77739 C 176.52575,59.92176 58.44283,-97.1394 57.71002,-97.1394 c -0.57234,0 -33.96951,44.1 -74.21594,98 -40.246421,53.9 -73.50453,98.33976 -73.906905,98.75502 -0.402374,0.41526 -5.206832,1.18332 -10.676575,1.7068 -8.8303,0.8451 -19.40822,2.7203 -26.29584,4.6616 -1.84244,0.51929 -2.27499,0.31007 -2,-0.9674 z M 6.74197,-15.58817 c 0.86903,-3.32318 49.87347,-69.17231 51.23953,-68.852509 1.56145,0.365543 51.45246,67.781809 51.47101,69.551279 0.0103,0.98402 -10.96989,1.25 -51.60352,1.25 -50.67202,0 -51.60731,-0.0357 -51.10702,-1.94877 z M 95.827,-20.8894 c -1.52796,-2.52418 -26.57924,-37.282101 -27.56816,-38.25 -1.58299,-1.549351 1.60792,4.52759 11.9457,22.75 9.40404,16.5765 9.53808,16.75 12.94079,16.75 2.48754,0 3.22909,-0.34566 2.68167,-1.25 z"
         id="path1724" />
      <path
         style="fill:#eb9321"
         d="m -47.23723,106.39363 c -2.311563,-1.05103 -8.386563,-2.87198 -13.499997,-4.04656 -5.113434,-1.17457 -10.510889,-2.43953 -11.994345,-2.81103 -2.642157,-0.66166 -1.93019,-1.72116 34.892982,-51.92544 37.59017,-51.25 37.59017,-51.25 47.38817,-51.25 12.33324,0 12.07713,-0.97641 4.49912,17.15296 -3.52825,8.44087 -10.29488,26.14704 -15.03696,39.34704 -4.74208,13.2 -10.56733,29.38245 -12.94501,35.96101 -2.37767,6.57856 -4.94811,12.28452 -5.71208,12.67993 -9.74821,5.04538 -22.34335,7.27852 -27.59188,4.89209 z M 58.80436,77.19771 c 0.3637,-16.5896 0.66126,-41.57522 0.66126,-55.52362 0,-25.36072 0,-25.36072 17.15001,-25.0871 19.78297,0.31562 17.76519,-2.44358 35.30215,48.27361 5.13482,14.85 11.63986,33.47129 14.45563,41.38065 5.11958,14.38064 5.11958,14.38064 0.3559,13.7716 -21.83893,-2.79213 -44.7855,-0.59643 -61.53393,5.88803 -7.59168,2.93926 -7.13015,5.01206 -6.39102,-28.70317 z m -188.1896,27.81891 c 0.32982,-1.53226 182.3246,-243.98691 185.61431,-247.27661 1.3736,-1.3736 1.70944,-1.34339 3.28162,0.29519 5.5959,5.83225 185.02579,245.65189 184.31553,246.34962 -0.47333,0.46499 -3.5606,0.21209 -6.8606,-0.562 -3.3,-0.77408 -11.61579,-1.9171 -18.47954,-2.54003 -9.4915,-0.86141 -12.76814,-1.52642 -13.6849,-2.77739 C 176.52575,59.92176 58.44283,-97.1394 57.71002,-97.1394 c -0.57234,0 -33.96951,44.1 -74.21594,98 -40.246421,53.9 -73.50453,98.33976 -73.906905,98.75502 -0.402374,0.41526 -5.206832,1.18332 -10.676575,1.7068 -8.8303,0.8451 -19.40822,2.7203 -26.29584,4.6616 -1.84244,0.51929 -2.27499,0.31007 -2,-0.9674 z M 6.74197,-15.58817 c 0.86903,-3.32318 49.87347,-69.17231 51.23953,-68.852509 1.56145,0.365543 51.45246,67.781809 51.47101,69.551279 0.0103,0.98402 -10.96989,1.25 -51.60352,1.25 -50.67202,0 -51.60731,-0.0357 -51.10702,-1.94877 z M 95.827,-20.8894 c -1.52796,-2.52418 -26.57924,-37.282101 -27.56816,-38.25 -1.58299,-1.549351 1.60792,4.52759 11.9457,22.75 9.40404,16.5765 9.53808,16.75 12.94079,16.75 2.48754,0 3.22909,-0.34566 2.68167,-1.25 z"
         id="path1722" />
      <path
         style="fill:#5f5f5f"
         d="m -129.38524,105.01662 c 0.32982,-1.53226 182.3246,-243.98691 185.61431,-247.27661 1.3736,-1.3736 1.70944,-1.34339 3.28162,0.29519 5.5959,5.83225 185.02579,245.65189 184.31553,246.34962 -0.47333,0.46499 -3.5606,0.21209 -6.8606,-0.562 -3.3,-0.77408 -11.61579,-1.9171 -18.47954,-2.54003 -9.4915,-0.86141 -12.76814,-1.52642 -13.6849,-2.77739 C 176.52575,59.92176 58.44283,-97.1394 57.71002,-97.1394 c -0.57234,0 -33.96951,44.1 -74.21594,98 -40.246421,53.9 -73.50453,98.33976 -73.906905,98.75502 -0.402374,0.41526 -5.206832,1.18332 -10.676575,1.7068 -8.8303,0.8451 -19.40822,2.7203 -26.29584,4.6616 -1.84244,0.51929 -2.27499,0.31007 -2,-0.9674 z M 6.74197,-15.58817 c 0.86903,-3.32318 49.87347,-69.17231 51.23953,-68.852509 1.56145,0.365543 51.45246,67.781809 51.47101,69.551279 0.0103,0.98402 -10.96989,1.25 -51.60352,1.25 -50.67202,0 -51.60731,-0.0357 -51.10702,-1.94877 z M 95.827,-20.8894 c -1.52796,-2.52418 -26.57924,-37.282101 -27.56816,-38.25 -1.58299,-1.549351 1.60792,4.52759 11.9457,22.75 9.40404,16.5765 9.53808,16.75 12.94079,16.75 2.48754,0 3.22909,-0.34566 2.68167,-1.25 z"
         id="path1720" />
      <path
         style="fill:#121212"
         d="m -124.47536,100.28481 c 66.968285,-89.61002 181.48359,-240.91158 182.31192,-240.87678 1.17962,0.0496 183.78339,242.13157 183.13229,242.78268 -0.20495,0.20494 -3.64999,-0.18018 -7.65566,-0.85582 -4.00566,-0.67564 -11.55971,-1.50876 -16.78677,-1.85137 -9.50374,-0.62292 -9.50374,-0.62292 -83.34747,-99.62292 -44.89873,-60.194346 -74.47863,-99 -75.46349,-99 -0.98351,0 -28.94596,36.585937 -71.18481,93.13784 -89.2301,119.4666 -77.927362,105.36216 -84.432997,105.36216 -4.709413,0 -14.404143,1.37767 -25.632033,3.64244 -3.5,0.70599 -3.5,0.70599 -0.94098,-2.71823 z M 9.04816,-15.50585 c -0.67202,-1.08735 47.59728,-67.181072 48.79644,-66.815514 2.11014,0.643264 49.42812,66.184074 48.30026,66.901374 -1.65909,1.05514 -96.44332,0.97133 -97.0967,-0.0859 z m 89.11089,-3.69701 C 98.4299,-20.02849 78.1799,-49.1624 62.95808,-69.8469 c -2.61279,-3.550447 -4.92145,-4.540975 -4.20585,-1.804514 0.64719,2.474861 27.38926,49.806434 29.55475,52.309824 1.71178,1.97888 9.21375,2.08452 9.85207,0.13873 z"
         id="path1718" />
    </g>
  </g>
</svg>
